:SAMPLES-PER-SECOND 30
:FULLY-SPECIFIED
:DEGREES
78
root  -5.65907 40.9292 0.0893301 59.5086 -89.715 -60.613
RightUpLeg  6.02471 -2.04117 -1.51601
RightLeg  -3.24556 -24.6591 1.61998
RightFoot  -0.316753 -0.323233 3.42798
RightToes  -3.11842e-008 1.75238e-005 3.56266e-009
Spine  -8.91766 0.346292 -1.4255
Spine1  17.9832 0.616575 -0.240529
HEad  -18.9966 -1.49393 12.4271
LeftShoulder1  2.62598 -4.90359 -25.066
LeftArm  -33.282 17.7 -56.7358
LeftForeArm  158.512 -57.7604 -163.226
LeftHand  -0.660139 -2.26249 10.215
RightShoulder  3.23177 6.58339 26.0009
RightArm  -14.3823 -7.50503 47.7938
RightForeArm  169.793 69.3455 154.223
RightHand  -1.23652 10.3375 -9.48565
LeftUpLeg  5.97539 1.84181 3.18324
LeftLeg  -2.91393 16.688 -0.883865
LeftFoot  -0.528998 0.332645 -3.55331
LeftToes  4.78904e-008 1.4679e-008 1.35657e-009
79
root  -5.70046 40.9257 0.110058 103.676 -89.7167 -104.799
RightUpLeg  6.11836 -2.07187 -1.53283
RightLeg  -3.36982 -24.4995 1.67421
RightFoot  -0.291711 -0.316183 3.32933
RightToes  -3.11842e-008 1.75238e-005 3.56266e-009
Spine  -9.06388 0.279868 -1.40806
Spine1  18.0317 0.566949 -0.302461
HEad  -18.9114 -1.69863 13.5544
LeftShoulder1  2.63387 -4.89521 -25.1967
LeftArm  -33.7897 16.9652 -56.4802
LeftForeArm  157.81 -58.0753 -162.974
LeftHand  -0.673373 -2.28478 10.3894
RightShoulder  3.24115 6.59993 26.0425
RightArm  -14.8827 -8.09946 47.4898
RightForeArm  170.009 69.4407 154.127
RightHand  -1.15324 10.4394 -8.82701
LeftUpLeg  6.11478 1.88845 3.17932
LeftLeg  -2.96353 16.8959 -0.944603
LeftFoot  -0.625627 0.323277 -3.44056
LeftToes  4.78904e-008 1.4679e-008 1.35657e-009
80
root  -5.73909 40.9203 0.138255 138.474 -89.4165 -139.565
RightUpLeg  6.08552 -2.00487 -1.45948
RightLeg  -3.31783 -24.1622 1.61702
RightFoot  -0.292777 -0.317245 3.3555
RightToes  -3.11842e-008 1.75238e-005 3.56266e-009
Spine  -9.20152 0.182377 -1.49936
Spine1  17.9526 0.4205 -0.141288
HEad  -18.9632 -1.89861 14.608
LeftShoulder1  2.62993 -4.87815 -25.2137
LeftArm  -34.0854 16.7257 -56.1448
LeftForeArm  156.973 -58.1579 -162.85
LeftHand  -0.689969 -1.97001 11.0644
RightShoulder  3.29742 6.75428 26.1108
RightArm  -15.6266 -8.65252 47.1008
RightForeArm  170.873 69.6051 154.022
RightHand  -1.1567 10.9797 -8.57659
LeftUpLeg  6.35691 1.89745 3.21445
LeftLeg  -3.27482 17.215 -1.00604
LeftFoot  -0.708337 0.316726 -3.32097
LeftToes  4.78904e-008 1.4679e-008 1.35657e-009
81
root  -5.78505 40.9218 0.159568 152.693 -88.999 -153.768
RightUpLeg  6.10241 -1.93389 -1.43171
RightLeg  -3.30976 -23.6843 1.56528
RightFoot  -0.225068 -0.318031 3.3761
RightToes  -3.11842e-008 1.75238e-005 3.56266e-009
Spine  -9.67012 0.125152 -1.85991
Spine1  18.3837 0.221596 0.378529
HEad  -19.229 -2.06245 15.5
LeftShoulder1  2.57956 -4.73234 -25.1556
LeftArm  -34.5785 16.0343 -56.0349
LeftForeArm  156.09 -58.413 -162.612
LeftHand  -0.646404 -1.87752 10.5077
RightShoulder  3.2219 6.50981 26.1428
RightArm  -15.9267 -8.51536 46.6323
RightForeArm  170.376 69.8047 153.693
RightHand  -1.21099 11.1989 -8.84922
LeftUpLeg  6.50187 1.90682 3.22403
LeftLeg  -3.33468 17.6726 -1.01134
LeftFoot  -0.733717 0.3215 -3.3711
LeftToes  4.78904e-008 1.4679e-008 1.35657e-009
82
root  -5.822 40.9251 0.176991 158.319 -88.6696 -159.278
RightUpLeg  6.08321 -1.9732 -1.48754
RightLeg  -3.53504 -23.3408 1.71606
RightFoot  -0.120781 -0.308132 3.22948
RightToes  -3.11842e-008 1.75238e-005 3.56266e-009
Spine  -9.98969 0.0407564 -2.23882
Spine1  18.5633 0.00385351 0.849498
HEad  -19.2147 -2.56551 15.6781
LeftShoulder1  2.51429 -4.50443 -25.2324
LeftArm  -34.7848 15.0088 -55.4259
LeftForeArm  155.674 -59.0603 -162.158
LeftHand  -0.630689 -1.75702 10.4183
RightShoulder  3.13983 6.29128 26.02
RightArm  -16.1828 -8.47814 46.1708
RightForeArm  169.094 69.5928 153.808
RightHand  -1.26659 10.9297 -9.37554
LeftUpLeg  6.38144 1.91051 3.19691
LeftLeg  -3.14262 18.0634 -0.960033
LeftFoot  -0.766303 0.328547 -3.5028
LeftToes  4.78904e-008 1.4679e-008 1.35657e-009
83
root  -5.86681 40.9162 0.202326 160.807 -88.1729 -161.688
RightUpLeg  6.00859 -1.89926 -1.39486
RightLeg  -3.59865 -23.0844 1.697
RightFoot  -0.0503065 -0.302779 3.15179
RightToes  -3.11842e-008 1.75238e-005 3.56266e-009
Spine  -9.75903 -0.0901336 -2.47347
Spine1  17.9289 -0.259884 1.29822
HEad  -19.6572 -2.15429 16.3924
LeftShoulder1  2.4908 -4.46654 -25.0808
LeftArm  -35.4726 15.0842 -55.2474
LeftForeArm  155.088 -59.1173 -162.067
LeftHand  -0.666785 -2.00943 10.6475
RightShoulder  3.24481 6.59983 26.0817
RightArm  -16.6132 -9.12177 45.415
RightForeArm  168.924 69.3854 154.059
RightHand  -1.24194 10.6431 -9.35676
LeftUpLeg  6.58703 2.006 3.27318
LeftLeg  -3.43827 18.4474 -1.13294
LeftFoot  -0.893189 0.304393 -3.26989
LeftToes  4.78904e-008 1.4679e-008 1.35657e-009
84
root  -5.90183 40.9166 0.228965 163.229 -87.8324 -164.04
RightUpLeg  5.96249 -1.89015 -1.43476
RightLeg  -3.6258 -22.728 1.68635
RightFoot  -0.0192386 -0.308202 3.23952
RightToes  -3.11842e-008 1.75238e-005 3.56266e-009
Spine  -10.1826 -0.207534 -2.69347
Spine1  18.2843 -0.47154 1.62867
HEad  -20.5731 -1.90356 16.7104
LeftShoulder1  2.57338 -4.74567 -25.0239
LeftArm  -36.4202 14.5857 -55.0172
LeftForeArm  153.899 -59.2969 -161.843
LeftHand  -0.62128 -1.99645 9.95594
RightShoulder  3.13372 6.20855 26.2383
RightArm  -16.8449 -8.66758 45.102
RightForeArm  167.254 69.7173 153.402
RightHand  -1.28968 10.4971 -9.78181
LeftUpLeg  6.65974 1.9663 3.21163
LeftLeg  -3.54246 18.8448 -1.15561
LeftFoot  -0.884345 0.304057 -3.27555
LeftToes  4.78904e-008 1.4679e-008 1.35657e-009
